<?xml version="1.0" encoding="UTF-8"?>
<svg xmlns="http://www.w3.org/2000/svg" xmlns:xlink="http://www.w3.org/1999/xlink" width="2000" height="2000" viewBox="0 0 2000 2000">
<path fill-rule="evenodd" fill="rgb(31.762695%, 32.151794%, 32.542419%)" fill-opacity="1" d="M 0 0.078125 L 1999.921875 0.078125 L 1999.921875 2000 L 0 2000 L 0 0.078125 "/>
<path fill-rule="evenodd" fill="rgb(31.762695%, 32.151794%, 32.542419%)" fill-opacity="1" d="M 1908.238281 1915.15625 L 1889.179688 1915.15625 C 1888.300781 1915.15625 1887.589844 1915.871094 1887.589844 1916.746094 L 1887.589844 1935.800781 C 1887.589844 1936.679688 1888.300781 1937.394531 1889.179688 1937.394531 L 1908.238281 1937.394531 C 1909.109375 1937.394531 1909.828125 1936.679688 1909.828125 1935.800781 L 1909.828125 1916.746094 C 1909.828125 1915.871094 1909.109375 1915.15625 1908.238281 1915.15625 "/>
<path fill-rule="evenodd" fill="rgb(31.762695%, 32.151794%, 32.542419%)" fill-opacity="1" d="M 1865.28125 1916.171875 L 1847.089844 1916.171875 C 1846.261719 1916.171875 1845.578125 1916.855469 1845.578125 1917.691406 L 1845.578125 1935.875 C 1845.578125 1936.710938 1846.261719 1937.394531 1847.089844 1937.394531 L 1865.28125 1937.394531 C 1866.109375 1937.394531 1866.800781 1936.710938 1866.800781 1935.875 L 1866.800781 1917.691406 C 1866.800781 1916.855469 1866.109375 1916.171875 1865.28125 1916.171875 "/>
<path fill-rule="evenodd" fill="rgb(31.762695%, 32.151794%, 32.542419%)" fill-opacity="1" d="M 1822.320312 1917.1875 L 1805.011719 1917.1875 C 1804.210938 1917.1875 1803.558594 1917.839844 1803.558594 1918.636719 L 1803.558594 1935.949219 C 1803.558594 1936.742188 1804.210938 1937.394531 1805.011719 1937.394531 L 1822.320312 1937.394531 C 1823.121094 1937.394531 1823.769531 1936.742188 1823.769531 1935.949219 L 1823.769531 1918.636719 C 1823.769531 1917.839844 1823.121094 1917.1875 1822.320312 1917.1875 "/>
<path fill-rule="evenodd" fill="rgb(31.762695%, 32.151794%, 32.542419%)" fill-opacity="1" d="M 1779.371094 1918.207031 L 1762.929688 1918.207031 C 1762.171875 1918.207031 1761.550781 1918.824219 1761.550781 1919.582031 L 1761.550781 1936.019531 C 1761.550781 1936.777344 1762.171875 1937.394531 1762.929688 1937.394531 L 1779.371094 1937.394531 C 1780.121094 1937.394531 1780.738281 1936.777344 1780.738281 1936.019531 L 1780.738281 1919.582031 C 1780.738281 1918.824219 1780.121094 1918.207031 1779.371094 1918.207031 "/>
<path fill-rule="evenodd" fill="rgb(31.762695%, 32.151794%, 32.542419%)" fill-opacity="1" d="M 1736.410156 1919.222656 L 1720.839844 1919.222656 C 1720.128906 1919.222656 1719.539062 1919.808594 1719.539062 1920.523438 L 1719.539062 1936.09375 C 1719.539062 1936.808594 1720.128906 1937.394531 1720.839844 1937.394531 L 1736.410156 1937.394531 C 1737.128906 1937.394531 1737.710938 1936.808594 1737.710938 1936.09375 L 1737.710938 1920.523438 C 1737.710938 1919.808594 1737.128906 1919.222656 1736.410156 1919.222656 "/>
<path fill-rule="evenodd" fill="rgb(31.762695%, 32.151794%, 32.542419%)" fill-opacity="1" d="M 1693.460938 1920.238281 L 1678.761719 1920.238281 C 1678.078125 1920.238281 1677.53125 1920.792969 1677.53125 1921.46875 L 1677.53125 1936.167969 C 1677.53125 1936.84375 1678.078125 1937.394531 1678.761719 1937.394531 L 1693.460938 1937.394531 C 1694.128906 1937.394531 1694.679688 1936.84375 1694.679688 1936.167969 L 1694.679688 1921.46875 C 1694.679688 1920.792969 1694.128906 1920.238281 1693.460938 1920.238281 "/>
<path fill-rule="evenodd" fill="rgb(31.762695%, 32.151794%, 32.542419%)" fill-opacity="1" d="M 1650.5 1921.257812 L 1636.671875 1921.257812 C 1636.039062 1921.257812 1635.519531 1921.777344 1635.519531 1922.414062 L 1635.519531 1936.238281 C 1635.519531 1936.875 1636.039062 1937.394531 1636.671875 1937.394531 L 1650.5 1937.394531 C 1651.140625 1937.394531 1651.648438 1936.875 1651.648438 1936.238281 L 1651.648438 1922.414062 C 1651.648438 1921.777344 1651.140625 1921.257812 1650.5 1921.257812 "/>
<path fill-rule="evenodd" fill="rgb(31.762695%, 32.151794%, 32.542419%)" fill-opacity="1" d="M 1607.539062 1922.273438 L 1594.589844 1922.273438 C 1593.988281 1922.273438 1593.511719 1922.761719 1593.511719 1923.355469 L 1593.511719 1936.3125 C 1593.511719 1936.90625 1593.988281 1937.394531 1594.589844 1937.394531 L 1607.539062 1937.394531 C 1608.140625 1937.394531 1608.628906 1936.90625 1608.628906 1936.3125 L 1608.628906 1923.355469 C 1608.628906 1922.761719 1608.140625 1922.273438 1607.539062 1922.273438 "/>
<path fill-rule="evenodd" fill="rgb(31.762695%, 32.151794%, 32.542419%)" fill-opacity="1" d="M 1564.589844 1923.292969 L 1552.5 1923.292969 C 1551.949219 1923.292969 1551.488281 1923.746094 1551.488281 1924.300781 L 1551.488281 1936.386719 C 1551.488281 1936.941406 1551.949219 1937.394531 1552.5 1937.394531 L 1564.589844 1937.394531 C 1565.140625 1937.394531 1565.601562 1936.941406 1565.601562 1936.386719 L 1565.601562 1924.300781 C 1565.601562 1923.746094 1565.140625 1923.292969 1564.589844 1923.292969 "/>
<path fill-rule="evenodd" fill="rgb(45.872498%, 49.414062%, 49.804688%)" fill-opacity="1" d="M 547.375 315.269531 L 1433.339844 315.269531 C 1525.300781 315.269531 1600.160156 390.128906 1600.160156 482.089844 L 1600.160156 1521.488281 C 1600.160156 1613.441406 1525.300781 1688.308594 1433.339844 1688.308594 L 547.375 1688.308594 C 455.421875 1688.308594 380.558594 1613.441406 380.558594 1521.488281 L 380.558594 482.089844 C 380.558594 390.128906 455.421875 315.269531 547.375 315.269531 "/>
<path fill="none" stroke-width="799.999" stroke-linecap="round" stroke-linejoin="round" stroke="rgb(45.872498%, 49.414062%, 49.804688%)" stroke-opacity="1" stroke-miterlimit="2.61313" d="M 5473.75 16847.304688 L 14333.398438 16847.304688 C 15253.007812 16847.304688 16001.601562 16098.710938 16001.601562 15179.101562 L 16001.601562 4785.117188 C 16001.601562 3865.585938 15253.007812 3116.914062 14333.398438 3116.914062 L 5473.75 3116.914062 C 4554.21875 3116.914062 3805.585938 3865.585938 3805.585938 4785.117188 L 3805.585938 15179.101562 C 3805.585938 16098.710938 4554.21875 16847.304688 5473.75 16847.304688 Z M 5473.75 16847.304688 " transform="matrix(0.1, 0, 0, -0.1, 0, 2000)"/>
<path fill-rule="evenodd" fill="rgb(100%, 100%, 100%)" fill-opacity="1" d="M 585.777344 363.269531 L 1471.738281 363.269531 C 1563.699219 363.269531 1638.558594 438.140625 1638.558594 530.089844 L 1638.558594 1569.492188 C 1638.558594 1661.441406 1563.699219 1736.308594 1471.738281 1736.308594 L 585.777344 1736.308594 C 493.824219 1736.308594 418.960938 1661.441406 418.960938 1569.492188 L 418.960938 530.089844 C 418.960938 438.140625 493.824219 363.269531 585.777344 363.269531 "/>
<path fill-rule="evenodd" fill="rgb(63.084412%, 52.146912%, 52.146912%)" fill-opacity="1" d="M 585.777344 463.269531 L 1028.761719 463.269531 L 1028.761719 1636.308594 L 585.777344 1636.308594 C 549.027344 1636.308594 518.960938 1606.242188 518.960938 1569.492188 L 518.960938 530.089844 C 518.960938 493.339844 549.027344 463.269531 585.777344 463.269531 "/>
<path fill-rule="nonzero" fill="rgb(91.796875%, 91.796875%, 91.796875%)" fill-opacity="1" d="M 660.640625 1271.898438 C 660.640625 1287.277344 648.175781 1299.742188 632.796875 1299.742188 C 617.421875 1299.742188 604.957031 1287.277344 604.957031 1271.898438 L 604.957031 749.71875 C 604.957031 713.460938 619.773438 680.5 643.644531 656.628906 C 667.519531 632.761719 700.46875 617.941406 736.738281 617.941406 L 855.527344 617.941406 C 870.902344 617.941406 883.367188 630.410156 883.367188 645.78125 C 883.367188 661.160156 870.902344 673.628906 855.527344 673.628906 L 736.738281 673.628906 C 715.839844 673.628906 696.820312 682.191406 683.015625 696 C 669.210938 709.808594 660.640625 728.828125 660.640625 749.71875 Z M 1028.761719 1481.636719 L 918.632812 1481.636719 C 880.664062 1481.636719 846.164062 1466.121094 821.171875 1441.128906 C 796.179688 1416.136719 780.664062 1381.636719 780.664062 1343.667969 L 780.664062 1206.320312 C 780.664062 1190.941406 793.132812 1178.476562 808.507812 1178.476562 C 823.882812 1178.476562 836.347656 1190.941406 836.347656 1206.320312 L 836.347656 1343.667969 C 836.347656 1366.269531 845.613281 1386.835938 860.539062 1401.761719 C 875.46875 1416.6875 896.035156 1425.953125 918.632812 1425.953125 L 1028.761719 1425.953125 Z M 780.664062 994.109375 C 765.289062 994.109375 752.824219 981.640625 752.824219 966.269531 C 752.824219 950.890625 765.289062 938.429688 780.664062 938.429688 L 1000.921875 938.429688 L 1000.921875 892.640625 L 859.859375 892.640625 C 844.480469 892.640625 832.015625 880.179688 832.015625 864.800781 C 832.015625 849.421875 844.480469 836.960938 859.859375 836.960938 L 1000.921875 836.960938 L 1000.921875 789.941406 L 909.972656 789.941406 C 894.597656 789.941406 882.132812 777.46875 882.132812 762.101562 C 882.132812 746.71875 894.597656 734.261719 909.972656 734.261719 L 1000.921875 734.261719 L 1000.921875 677.960938 C 1000.921875 662.578125 1013.378906 650.121094 1028.761719 650.121094 L 1028.761719 1334.386719 C 1013.378906 1334.386719 1000.921875 1321.921875 1000.921875 1306.546875 L 1000.921875 1089.386719 L 859.859375 1089.386719 C 844.480469 1089.386719 832.015625 1076.921875 832.015625 1061.546875 C 832.015625 1046.167969 844.480469 1033.703125 859.859375 1033.703125 L 1000.921875 1033.703125 L 1000.921875 994.109375 L 780.664062 994.109375 "/>
<path fill-rule="evenodd" fill="rgb(53.318787%, 41.967773%, 41.967773%)" fill-opacity="1" d="M 1028.761719 463.269531 L 1471.738281 463.269531 C 1508.488281 463.269531 1538.558594 493.339844 1538.558594 530.089844 L 1538.558594 1569.492188 C 1538.558594 1606.242188 1508.488281 1636.308594 1471.738281 1636.308594 L 1028.761719 1636.308594 L 1028.761719 463.269531 "/>
<path fill-rule="nonzero" fill="rgb(82.421875%, 82.421875%, 82.03125%)" fill-opacity="1" d="M 1028.761719 1481.636719 L 1028.761719 1425.953125 L 1138.890625 1425.953125 C 1161.488281 1425.953125 1182.050781 1416.6875 1196.980469 1401.761719 C 1211.910156 1386.835938 1221.171875 1366.269531 1221.171875 1343.667969 L 1221.171875 1206.320312 C 1221.171875 1190.941406 1233.640625 1178.476562 1249.011719 1178.476562 C 1264.390625 1178.476562 1276.859375 1190.941406 1276.859375 1206.320312 L 1276.859375 1343.667969 C 1276.859375 1381.636719 1261.339844 1416.136719 1236.351562 1441.128906 C 1211.359375 1466.121094 1176.859375 1481.636719 1138.890625 1481.636719 Z M 1028.761719 1334.386719 L 1028.761719 650.121094 C 1044.140625 650.121094 1056.601562 662.578125 1056.601562 677.960938 L 1056.601562 734.261719 L 1132.699219 734.261719 C 1148.078125 734.261719 1160.539062 746.71875 1160.539062 762.101562 C 1160.539062 777.46875 1148.078125 789.941406 1132.699219 789.941406 L 1056.601562 789.941406 L 1056.601562 836.960938 L 1182.808594 836.960938 C 1198.191406 836.960938 1210.660156 849.421875 1210.660156 864.800781 C 1210.660156 880.179688 1198.191406 892.640625 1182.808594 892.640625 L 1056.601562 892.640625 L 1056.601562 938.429688 L 1262.011719 938.429688 C 1277.378906 938.429688 1289.851562 950.890625 1289.851562 966.269531 C 1289.851562 981.640625 1277.378906 994.109375 1262.011719 994.109375 L 1056.601562 994.109375 L 1056.601562 1033.703125 L 1182.808594 1033.703125 C 1198.191406 1033.703125 1210.660156 1046.167969 1210.660156 1061.546875 C 1210.660156 1076.921875 1198.191406 1089.386719 1182.808594 1089.386719 L 1056.601562 1089.386719 L 1056.601562 1306.546875 C 1056.601562 1321.921875 1044.140625 1334.386719 1028.761719 1334.386719 Z M 1452.558594 1271.898438 C 1452.558594 1287.277344 1440.101562 1299.742188 1424.71875 1299.742188 C 1409.351562 1299.742188 1396.878906 1287.277344 1396.878906 1271.898438 L 1396.878906 749.71875 C 1396.878906 728.828125 1388.308594 709.808594 1374.511719 696 C 1360.699219 682.191406 1341.679688 673.628906 1320.78125 673.628906 L 1201.988281 673.628906 C 1186.621094 673.628906 1174.148438 661.160156 1174.148438 645.78125 C 1174.148438 630.410156 1186.621094 617.941406 1201.988281 617.941406 L 1320.78125 617.941406 C 1357.050781 617.941406 1390 632.761719 1413.878906 656.628906 C 1437.75 680.5 1452.558594 713.460938 1452.558594 749.71875 L 1452.558594 1271.898438 "/>
</svg>
